<svg width="43" height="30" viewBox="0 0 43 30" fill="none" xmlns="http://www.w3.org/2000/svg"><rect x="0.5" y="0.5" width="29" height="29" stroke="#A78B73"/><path d="M14.7539 14.5H14.2539V15.5H14.7539V14.5ZM42.3538 15.3536C42.5491 15.1583 42.5491 14.8417 42.3538 14.6464L39.1719 11.4645C38.9766 11.2692 38.66 11.2692 38.4647 11.4645C38.2695 11.6597 38.2695 11.9763 38.4647 12.1716L41.2932 15L38.4647 17.8284C38.2695 18.0237 38.2695 18.3403 38.4647 18.5355C38.66 18.7308 38.9766 18.7308 39.1719 18.5355L42.3538 15.3536ZM14.7539 15.5L42.0003 15.5V14.5L14.7539 14.5V15.5Z" fill="#343536"/></svg>