<svg width="37" height="8" viewBox="0 0 37 8" fill="none" xmlns="http://www.w3.org/2000/svg">
<rect width="37" height="8" fill="#F5F5F5"/>
<g id="Slide 16:9 - 1" clip-path="url(#clip0_2_9451)">
<rect width="1920" height="16615" transform="translate(-1575 -3933)" fill="white"/>
<g id="3">
<rect width="1920" height="1668" transform="translate(-1575 -1449)" fill="white"/>
<g id="Frame 310">
<g id="Group 17">
<path id="Arrow 4" d="M1 3.5H0.5V4.5H1V3.5ZM36.3536 4.35355C36.5488 4.15829 36.5488 3.84171 36.3536 3.64645L33.1716 0.464466C32.9763 0.269204 32.6597 0.269204 32.4645 0.464466C32.2692 0.659728 32.2692 0.976311 32.4645 1.17157L35.2929 4L32.4645 6.82843C32.2692 7.02369 32.2692 7.34027 32.4645 7.53553C32.6597 7.7308 32.9763 7.7308 33.1716 7.53553L36.3536 4.35355ZM1 4.5H36V3.5H1V4.5Z" fill="#343536"/>
</g>
</g>
</g>
</g>
<defs>
<clipPath id="clip0_2_9451">
<rect width="1920" height="16615" fill="white" transform="translate(-1575 -3933)"/>
</clipPath>
</defs>
</svg>
