<svg width="20" height="20" viewBox="0 0 20 20" fill="none" xmlns="http://www.w3.org/2000/svg">
<g id="social/instagram">
<path id="Vector" d="M10.0019 5.7272C7.63719 5.7272 5.72977 7.63505 5.72977 10.0003C5.72977 12.3656 7.63719 14.2734 10.0019 14.2734C12.3667 14.2734 14.2741 12.3656 14.2741 10.0003C14.2741 7.63505 12.3667 5.7272 10.0019 5.7272ZM10.0019 12.7784C8.47378 12.7784 7.22447 11.5326 7.22447 10.0003C7.22447 8.4681 8.47006 7.22224 10.0019 7.22224C11.5338 7.22224 12.7794 8.4681 12.7794 10.0003C12.7794 11.5326 11.5301 12.7784 10.0019 12.7784ZM15.4453 5.55241C15.4453 6.10654 14.9992 6.5491 14.4489 6.5491C13.8949 6.5491 13.4524 6.10282 13.4524 5.55241C13.4524 5.002 13.8986 4.55572 14.4489 4.55572C14.9992 4.55572 15.4453 5.002 15.4453 5.55241ZM18.2749 6.56398C18.2116 5.22886 17.9068 4.04622 16.9289 3.07184C15.9547 2.09747 14.7723 1.79251 13.4375 1.72557C12.0618 1.64747 7.93836 1.64747 6.56264 1.72557C5.23154 1.78879 4.04916 2.09375 3.07128 3.06812C2.09341 4.0425 1.79224 5.22514 1.72531 6.56026C1.64723 7.93628 1.64723 12.0606 1.72531 13.4367C1.78852 14.7718 2.09341 15.9544 3.07128 16.9288C4.04916 17.9032 5.22782 18.2081 6.56264 18.2751C7.93836 18.3532 12.0618 18.3532 13.4375 18.2751C14.7723 18.2119 15.9547 17.9069 16.9289 16.9288C17.903 15.9544 18.2079 14.7718 18.2749 13.4367C18.3529 12.0606 18.3529 7.94 18.2749 6.56398ZM16.4976 14.9131C16.2076 15.642 15.6461 16.2036 14.9136 16.4974C13.8168 16.9325 11.2141 16.8321 10.0019 16.8321C8.78982 16.8321 6.18339 16.9288 5.09025 16.4974C4.36149 16.2073 3.80004 15.6458 3.50631 14.9131C3.07128 13.816 3.17167 11.2127 3.17167 10.0003C3.17167 8.78793 3.075 6.18092 3.50631 5.08754C3.79633 4.35861 4.35777 3.79705 5.09025 3.50324C6.18711 3.06812 8.78982 3.16854 10.0019 3.16854C11.2141 3.16854 13.8205 3.07184 14.9136 3.50324C15.6424 3.79333 16.2038 4.35489 16.4976 5.08754C16.9326 6.18464 16.8322 8.78793 16.8322 10.0003C16.8322 11.2127 16.9326 13.8197 16.4976 14.9131Z" fill="#F7F7F9"/>
</g>
</svg>
