<svg width="35" height="32" viewBox="0 0 35 32" fill="none" xmlns="http://www.w3.org/2000/svg">
<path d="M34.0759 0.598552C33.7165 0.298976 33.2832 0.102786 32.8219 0.0307827C32.3607 -0.0412207 31.8886 0.0136457 31.4559 0.189565L1.59418 12.3133C1.11164 12.5128 0.70081 12.8551 0.416245 13.2948C0.13168 13.7346 -0.0131643 14.251 0.000940403 14.7755C0.0150452 15.3 0.187432 15.8077 0.495216 16.2314C0.802999 16.655 1.23162 16.9745 1.72418 17.1474L8.16752 19.3968L11.6592 31.006C11.6659 31.0295 11.6875 31.0446 11.6975 31.0664C11.7335 31.159 11.786 31.2442 11.8525 31.3178C11.9535 31.4313 12.084 31.5143 12.2292 31.5575C12.2459 31.5642 12.2575 31.5793 12.2742 31.5826H12.2842L12.2892 31.5843C12.4181 31.6122 12.5521 31.6053 12.6775 31.5642C12.6909 31.5608 12.7042 31.5608 12.7192 31.5558C12.8396 31.5133 12.9486 31.4433 13.0375 31.3513C13.0475 31.3396 13.0642 31.3379 13.0742 31.3279L18.0959 25.7529L25.4242 31.4603C25.8692 31.8106 26.4175 32 26.9825 32C28.2059 32 29.2609 31.1384 29.5125 29.9366L34.9492 3.08767C35.0414 2.63188 35.0089 2.15945 34.8551 1.72079C34.7013 1.28213 34.4319 0.893681 34.0759 0.596876V0.598552ZM13.4809 21.601L12.3025 27.362L9.84418 19.1856L22.0359 12.7994L13.7075 21.1769C13.5922 21.2928 13.5134 21.4403 13.4809 21.601ZM27.8792 29.5997C27.8479 29.7517 27.7783 29.8931 27.677 30.0102C27.5757 30.1273 27.4462 30.2163 27.3008 30.2685C27.1591 30.3234 27.0055 30.3402 26.8553 30.3173C26.7051 30.2943 26.5634 30.2325 26.4442 30.1378L18.5059 23.9544C18.3399 23.8255 18.1318 23.7643 17.923 23.783C17.7141 23.8016 17.52 23.8987 17.3792 24.0549L13.8842 27.9286L15.0609 22.1843L27.0425 10.1326C27.1828 9.99105 27.2682 9.80369 27.2832 9.60437C27.2983 9.40504 27.242 9.20688 27.1245 9.04563C27.007 8.88439 26.8361 8.77069 26.6426 8.72504C26.4491 8.6794 26.2457 8.70482 26.0692 8.79672L8.79752 17.8447L2.26918 15.5618C2.09609 15.5043 1.94512 15.3939 1.83728 15.2461C1.72945 15.0983 1.67011 14.9204 1.66752 14.7371C1.65921 14.5521 1.70834 14.3692 1.80809 14.2136C1.90784 14.058 2.05326 13.9375 2.22418 13.8688L32.0808 1.74505C32.2338 1.67968 32.402 1.65854 32.5663 1.684C32.7306 1.70947 32.8845 1.78053 33.0108 1.88921C33.1365 1.99143 33.2314 2.12676 33.2849 2.28009C33.3385 2.43341 33.3486 2.59869 33.3142 2.75746L27.8792 29.6014V29.5997Z" fill="#14010C"/>
</svg>
