<svg width="47" height="47" viewBox="0 0 47 47" fill="none" xmlns="http://www.w3.org/2000/svg">
<path fill-rule="evenodd" clip-rule="evenodd" d="M22.5965 6.0166C20.5474 6.2627 18.7979 7.08432 17.3679 8.47207C16.0896 9.71247 15.3425 11.0692 14.9482 12.8658C14.7881 13.595 14.7881 15.2482 14.9482 15.9773C15.3428 17.7758 16.0845 19.12 17.3708 20.3682C18.6516 21.6111 20.0504 22.3379 21.8956 22.7192C22.6503 22.8752 24.3505 22.8745 25.1085 22.7179C26.9615 22.3352 28.3078 21.6381 29.5936 20.3956C30.9146 19.1191 31.6506 17.7949 32.0495 15.9773C32.2095 15.2482 32.2095 13.595 32.0495 12.8658C31.65 11.0454 30.911 9.7151 29.5954 8.44818C29.2021 8.06949 28.6629 7.61937 28.397 7.44788C27.4233 6.81983 26.2636 6.34976 25.1423 6.12868C24.6896 6.03943 23.0189 5.96588 22.5965 6.0166ZM25.0865 8.0354C27.542 8.62855 29.4209 10.4562 30.0808 12.8935C30.2978 13.6949 30.297 15.1361 30.0791 15.9497C29.4263 18.3877 27.5877 20.172 25.0735 20.8075C24.2419 21.0177 22.7558 21.0177 21.9241 20.8075C19.4087 20.1717 17.5357 18.3484 16.9062 15.9226C16.7087 15.1618 16.7087 13.6814 16.9062 12.9206C17.5971 10.2583 19.7948 8.32816 22.6288 7.89474C23.0809 7.82563 24.5711 7.91088 25.0865 8.0354ZM20.1152 24.8321C18.6413 25.0084 17.5665 25.3127 16.2297 25.9325C12.0227 27.8832 9.27278 31.8992 9.02156 36.4593C8.98147 37.1865 8.98753 37.2462 9.1248 37.4833C9.20517 37.6221 9.37964 37.7945 9.5135 37.8675L9.75635 38H23.4941C36.8554 38 37.2383 37.9967 37.4714 37.8814C37.8128 37.7123 38 37.3606 38 36.888C38 34.7733 37.2048 32.232 35.9651 30.3857C35.4386 29.6013 35.0925 29.18 34.3978 28.4776C32.3305 26.3875 29.6245 25.1037 26.6569 24.8048C25.7805 24.7167 20.9116 24.7369 20.1152 24.8321ZM27.2691 26.7628C28.9199 27.0818 30.4058 27.7081 31.6999 28.6302C32.4125 29.138 33.5501 30.2673 34.0834 30.9965C34.5806 31.6762 35.1933 32.836 35.4837 33.6469C35.6923 34.2295 36.0021 35.5929 36.0021 35.9284V36.1237H23.4988H10.9956V35.9284C10.9956 35.5958 11.3045 34.2321 11.5124 33.6469C11.7955 32.8501 12.4115 31.6851 12.9146 30.9953C13.4601 30.2472 14.72 29.0194 15.4625 28.5123C16.5687 27.7566 18.1714 27.0761 19.4063 26.8375C20.4003 26.6454 20.7832 26.6285 23.7566 26.6458C26.1851 26.6598 26.8513 26.682 27.2691 26.7628Z" fill="black"/>
</svg>
