<svg width="20" height="20" viewBox="0 0 20 20" fill="none" xmlns="http://www.w3.org/2000/svg">
<g id="social/vk">
<path id="Shape" fill-rule="evenodd" clip-rule="evenodd" d="M10.899 14.9614C10.899 14.9614 11.2299 14.9291 11.3994 14.7696C11.5545 14.6234 11.5491 14.3476 11.5491 14.3476C11.5491 14.3476 11.5285 13.0595 12.2109 12.8694C12.8834 12.6823 13.7469 14.115 14.6633 14.6659C15.3555 15.0824 15.881 14.9912 15.881 14.9912L18.3298 14.9614C18.3298 14.9614 19.6103 14.8922 19.0032 14.0097C18.953 13.9374 18.649 13.3566 17.183 12.1636C15.647 10.9149 15.8532 11.1169 17.7022 8.95648C18.8284 7.64092 19.2785 6.83775 19.1377 6.49432C19.0041 6.16583 18.1756 6.25306 18.1756 6.25306L15.4192 6.26799C15.4192 6.26799 15.2148 6.24363 15.0632 6.323C14.9153 6.40081 14.8193 6.58234 14.8193 6.58234C14.8193 6.58234 14.3835 7.60005 13.8016 8.46609C12.574 10.2925 12.0835 10.3891 11.8827 10.276C11.4155 10.0111 11.5321 9.21346 11.5321 8.64684C11.5321 6.87626 11.8387 6.13832 10.9358 5.94735C10.6363 5.8837 10.4157 5.84205 9.64903 5.83497C8.66537 5.82633 7.83325 5.83812 7.36159 6.04009C7.04775 6.17447 6.80565 6.47468 6.9536 6.49197C7.13563 6.51319 7.5481 6.58942 7.76689 6.85033C8.04935 7.18747 8.03949 7.94348 8.03949 7.94348C8.03949 7.94348 8.20179 10.0276 7.66019 10.2862C7.28896 10.4638 6.77965 10.1015 5.68479 8.44408C5.12437 7.59534 4.70113 6.657 4.70113 6.657C4.70113 6.657 4.61953 6.48175 4.47337 6.38745C4.29673 6.27349 4.05014 6.23813 4.05014 6.23813L1.43093 6.25306C1.43093 6.25306 1.03728 6.26249 0.892916 6.41259C0.76469 6.54541 0.883052 6.82125 0.883052 6.82125C0.883052 6.82125 2.93377 11.0265 5.25618 13.146C7.3858 15.0887 9.80326 14.9614 9.80326 14.9614H10.899Z" fill="#F7F7F9"/>
</g>
</svg>
