<svg width="31" height="31" viewBox="0 0 31 31" fill="none" xmlns="http://www.w3.org/2000/svg">
<path d="M24.4622 18.6651L19.5018 16.1851C19.4042 16.1365 19.2954 16.1144 19.1866 16.1212C19.0777 16.128 18.9726 16.1634 18.8817 16.2238L16.3023 17.9443C14.8845 17.2644 13.741 16.1211 13.0611 14.7033L14.7817 12.1241C14.8421 12.0333 14.8775 11.9282 14.8843 11.8193C14.8911 11.7104 14.8691 11.6017 14.8204 11.5041L12.3403 6.5441C12.2888 6.44057 12.2094 6.35348 12.1111 6.29268C12.0128 6.23187 11.8994 6.19977 11.7838 6.2C10.3037 6.2 8.88434 6.78789 7.83781 7.83434C6.79128 8.8808 6.20334 10.3001 6.20334 11.78C6.20704 15.232 7.58007 18.5415 10.0212 20.9824C12.4623 23.4234 15.7721 24.7963 19.2243 24.8C20.7043 24.8 22.1237 24.2121 23.1703 23.1657C24.2168 22.1192 24.8047 20.6999 24.8047 19.22C24.8048 19.1048 24.7728 18.9919 24.7123 18.8939C24.6518 18.7959 24.5652 18.7166 24.4622 18.6651ZM19.2243 23.56C16.1008 23.5567 13.1062 22.3146 10.8976 20.1061C8.68897 17.8976 7.44672 14.9032 7.44344 11.78C7.44325 10.6938 7.85043 9.64695 8.58456 8.8463C9.31869 8.04565 10.3264 7.54938 11.4086 7.4555L13.5478 11.735L11.8427 14.2987C11.7858 14.3833 11.7507 14.4806 11.7405 14.582C11.7302 14.6834 11.7451 14.7857 11.7838 14.88C12.6076 16.8384 14.1656 18.3962 16.1241 19.22C16.2184 19.2592 16.321 19.2745 16.4227 19.2645C16.5244 19.2545 16.622 19.2195 16.7069 19.1626L19.2708 17.4576L23.5507 19.5966C23.4564 20.6788 22.9597 21.6863 22.1587 22.4201C21.3577 23.1538 20.3107 23.5606 19.2243 23.56ZM15.504 2.67787e-07C12.8054 -0.000501257 10.1534 0.703465 7.81037 2.04226C5.46732 3.38106 3.5144 5.30831 2.14478 7.63337C0.775168 9.95842 0.0363134 12.6007 0.00130474 15.2989C-0.0337039 17.9971 0.636346 20.6577 1.94518 23.0175L0.100538 28.5494C-0.00876267 28.8772 -0.0246246 29.2289 0.0547301 29.5651C0.134085 29.9013 0.30552 30.2088 0.549822 30.4531C0.794123 30.6974 1.10164 30.8688 1.43789 30.9482C1.77415 31.0275 2.12587 31.0116 2.45361 30.9023L7.98598 29.0578C10.0555 30.2044 12.36 30.8622 14.7229 30.9806C17.0859 31.099 19.4446 30.675 21.6184 29.741C23.7922 28.8071 25.7233 27.3879 27.2638 25.5924C28.8043 23.7968 29.9133 21.6725 30.5059 19.3822C31.0985 17.0918 31.1589 14.6962 30.6825 12.3789C30.2061 10.0616 29.2055 7.88409 27.7574 6.01321C26.3094 4.14232 24.4522 2.62771 22.3283 1.58541C20.2043 0.543114 17.87 0.000793653 15.504 2.67787e-07ZM15.504 29.76C12.9967 29.7608 10.5334 29.1005 8.36266 27.8457C8.26832 27.7914 8.16148 27.7626 8.05263 27.762C7.98567 27.762 7.91916 27.773 7.85577 27.7946L2.06143 29.7259C1.95219 29.7623 1.83495 29.7676 1.72286 29.7412C1.61078 29.7147 1.50827 29.6576 1.42684 29.5761C1.3454 29.4947 1.28826 29.3922 1.26181 29.2801C1.23536 29.1681 1.24064 29.0508 1.27708 28.9416L3.20852 23.1477C3.23638 23.0644 3.24623 22.9762 3.23741 22.8888C3.22859 22.8014 3.20131 22.7169 3.15737 22.6409C1.58509 19.9233 0.953652 16.7629 1.36101 13.6499C1.76837 10.5369 3.19176 7.6453 5.41036 5.42375C7.62896 3.20219 10.5187 1.77485 13.6314 1.36314C16.7441 0.951437 19.9056 1.57838 22.6256 3.14672C25.3455 4.71506 27.4718 7.13712 28.6747 10.0372C29.8775 12.9372 30.0895 16.1531 29.278 19.1859C28.4664 22.2188 26.6766 24.899 24.1861 26.8109C21.6957 28.7228 18.6438 29.7594 15.504 29.76Z" fill="#14010C"/>
</svg>
