<svg width="20" height="20" viewBox="0 0 20 20" fill="none" xmlns="http://www.w3.org/2000/svg">
<g id="social/whatsapp">
<path id="Page 1" fill-rule="evenodd" clip-rule="evenodd" d="M10.035 18.1904H10.0315C8.64268 18.19 7.27798 17.8432 6.0659 17.1852L1.66675 18.3337L2.84404 14.0541C2.11783 12.8016 1.7357 11.3808 1.73632 9.92524C1.73814 5.37168 5.46084 1.66699 10.0349 1.66699C12.2548 1.66795 14.3384 2.52803 15.9052 4.08911C17.4719 5.65011 18.3343 7.72506 18.3334 9.93175C18.3316 14.4843 14.6104 18.1886 10.035 18.1904ZM6.27008 15.6901L6.52194 15.8389C7.58093 16.4643 8.79485 16.7952 10.0325 16.7957H10.0353C13.837 16.7957 16.9311 13.7163 16.9326 9.93131C16.9333 8.09712 16.2166 6.37251 14.9144 5.075C13.6121 3.77749 11.8803 3.06259 10.038 3.06195C6.23348 3.06195 3.13929 6.14104 3.13779 9.92575C3.13725 11.2228 3.50191 12.486 4.19235 13.5789L4.35634 13.8386L3.65956 16.3716L6.27008 15.6901ZM14.2157 11.8956C14.1639 11.8095 14.0257 11.7579 13.8184 11.6546C13.611 11.5513 12.5916 11.0521 12.4015 10.9832C12.2115 10.9144 12.0732 10.88 11.935 11.0865C11.7968 11.293 11.3994 11.7579 11.2784 11.8956C11.1574 12.0333 11.0365 12.0506 10.8292 11.9473C10.6219 11.844 9.95374 11.6261 9.16173 10.923C8.54531 10.3758 8.12917 9.7001 8.00821 9.4935C7.88726 9.2869 7.99532 9.17526 8.09912 9.07236C8.19241 8.97987 8.30649 8.83128 8.41016 8.71081C8.51383 8.59035 8.54838 8.50422 8.6175 8.36659C8.68661 8.22881 8.65207 8.10835 8.60022 8.00505C8.54838 7.90175 8.1337 6.88601 7.96092 6.47281C7.79259 6.07042 7.62166 6.12493 7.49439 6.11858C7.37358 6.11254 7.23519 6.11127 7.09698 6.11127C6.95876 6.11127 6.7341 6.16292 6.54404 6.36951C6.35399 6.57611 5.81833 7.07536 5.81833 8.09102C5.81833 9.10677 6.56131 10.088 6.665 10.2257C6.76867 10.3635 8.12711 12.4478 10.2072 13.3417C10.7019 13.5543 11.0881 13.6813 11.3892 13.7764C11.8859 13.9335 12.338 13.9113 12.6952 13.8581C13.0936 13.7989 13.922 13.359 14.0949 12.8769C14.2676 12.3948 14.2676 11.9817 14.2157 11.8956Z" fill="#F7F7F9"/>
</g>
</svg>
